<svg width="191" height="87" viewBox="0 0 191 87" fill="none" xmlns="http://www.w3.org/2000/svg">
<path d="M39.68 57.52L31.136 46.096L34.752 43.568L43.2 54.928L39.68 57.52ZM32.832 54.32C31.1893 54.32 29.6747 54.032 28.288 53.456C26.9013 52.88 25.6853 52.08 24.64 51.056C23.616 50.0107 22.8267 48.784 22.272 47.376C21.7173 45.9467 21.44 44.4 21.44 42.736C21.44 41.0507 21.7173 39.5147 22.272 38.128C22.8267 36.72 23.616 35.4933 24.64 34.448C25.6853 33.4027 26.9013 32.592 28.288 32.016C29.6747 31.44 31.1893 31.152 32.832 31.152C34.496 31.152 36.0107 31.44 37.376 32.016C38.7627 32.592 39.968 33.4027 40.992 34.448C42.0373 35.4933 42.8373 36.72 43.392 38.128C43.9467 39.536 44.224 41.072 44.224 42.736C44.224 44.4 43.9467 45.936 43.392 47.344C42.8373 48.752 42.0373 49.9787 40.992 51.024C39.968 52.0693 38.7627 52.88 37.376 53.456C36.0107 54.032 34.496 54.32 32.832 54.32ZM32.832 49.776C33.7707 49.776 34.6347 49.6053 35.424 49.264C36.2347 48.9227 36.928 48.432 37.504 47.792C38.08 47.152 38.528 46.4053 38.848 45.552C39.1893 44.6987 39.36 43.76 39.36 42.736C39.36 41.712 39.1893 40.7733 38.848 39.92C38.528 39.0667 38.08 38.3307 37.504 37.712C36.928 37.072 36.2347 36.5813 35.424 36.24C34.6347 35.8773 33.7707 35.696 32.832 35.696C31.8933 35.696 31.0293 35.8773 30.24 36.24C29.4507 36.5813 28.7573 37.072 28.16 37.712C27.5627 38.3307 27.104 39.0667 26.784 39.92C26.4853 40.7733 26.336 41.712 26.336 42.736C26.336 43.76 26.4853 44.6987 26.784 45.552C27.104 46.4053 27.5627 47.152 28.16 47.792C28.7573 48.432 29.4507 48.9227 30.24 49.264C31.0293 49.6053 31.8933 49.776 32.832 49.776ZM57.7843 54.192C55.9709 54.192 54.3496 53.8187 52.9203 53.072C51.5123 52.304 50.4029 51.2587 49.5923 49.936C48.7816 48.592 48.3763 47.0773 48.3763 45.392V31.568H53.2083V45.104C53.2083 46 53.4109 46.8107 53.8163 47.536C54.2216 48.24 54.7656 48.8053 55.4483 49.232C56.1523 49.6587 56.9309 49.872 57.7843 49.872C58.6589 49.872 59.4483 49.6587 60.1523 49.232C60.8776 48.8053 61.4429 48.24 61.8483 47.536C62.2749 46.8107 62.4883 46 62.4883 45.104V31.568H67.1603V45.392C67.1603 47.0773 66.7549 48.592 65.9443 49.936C65.1336 51.2587 64.0136 52.304 62.5843 53.072C61.1763 53.8187 59.5763 54.192 57.7843 54.192ZM69.506 54L78.274 31.6H82.562L91.298 54H86.37L81.858 41.936C81.73 41.5947 81.57 41.1573 81.378 40.624C81.2073 40.0907 81.026 39.5253 80.834 38.928C80.642 38.3307 80.4607 37.7653 80.29 37.232C80.1193 36.6773 79.9913 36.2187 79.906 35.856L80.77 35.824C80.642 36.3147 80.4927 36.8267 80.322 37.36C80.1727 37.872 80.0127 38.4053 79.842 38.96C79.6713 39.4933 79.49 40.016 79.298 40.528C79.106 41.04 78.9247 41.5413 78.754 42.032L74.242 54H69.506ZM73.57 49.296L75.138 45.424H85.41L87.01 49.296H73.57ZM94.4433 54V31.6H98.7313L111.115 48.336H110.219C110.134 47.6747 110.059 47.0347 109.995 46.416C109.931 45.776 109.867 45.136 109.803 44.496C109.761 43.8347 109.718 43.1627 109.675 42.48C109.654 41.776 109.633 41.04 109.611 40.272C109.59 39.4827 109.579 38.6293 109.579 37.712V31.6H114.283V54H109.931L97.2913 37.104L98.5073 37.136C98.6139 38.2453 98.6993 39.1947 98.7633 39.984C98.8486 40.752 98.9126 41.424 98.9553 42C98.9979 42.576 99.0299 43.0773 99.0513 43.504C99.0939 43.9307 99.1153 44.336 99.1153 44.72C99.1366 45.104 99.1473 45.5093 99.1473 45.936V54H94.4433ZM124.772 54V35.92H118.243V31.6H136.292V35.92H129.572V54H124.772ZM149.472 54.192C147.658 54.192 146.037 53.8187 144.608 53.072C143.2 52.304 142.09 51.2587 141.28 49.936C140.469 48.592 140.064 47.0773 140.064 45.392V31.568H144.896V45.104C144.896 46 145.098 46.8107 145.504 47.536C145.909 48.24 146.453 48.8053 147.136 49.232C147.84 49.6587 148.618 49.872 149.472 49.872C150.346 49.872 151.136 49.6587 151.84 49.232C152.565 48.8053 153.13 48.24 153.536 47.536C153.962 46.8107 154.176 46 154.176 45.104V31.568H158.848V45.392C158.848 47.0773 158.442 48.592 157.632 49.936C156.821 51.2587 155.701 52.304 154.272 53.072C152.864 53.8187 151.264 54.192 149.472 54.192ZM164.475 54V31.6H168.859L177.019 44.88L174.139 44.848L182.395 31.6H186.587V54H181.883V46.32C181.883 44.4 181.925 42.672 182.011 41.136C182.117 39.6 182.288 38.0747 182.523 36.56L183.099 38.064L176.539 48.24H174.427L167.995 38.128L168.539 36.56C168.773 37.9893 168.933 39.4613 169.019 40.976C169.125 42.4693 169.179 44.2507 169.179 46.32V54H164.475Z" fill="#121625"/>
<path d="M122.159 67H120.045C119.92 66.392 119.702 65.858 119.389 65.3977C119.082 64.9375 118.707 64.5511 118.264 64.2386C117.827 63.9205 117.341 63.6818 116.807 63.5227C116.273 63.3636 115.716 63.2841 115.136 63.2841C114.08 63.2841 113.122 63.5511 112.264 64.0852C111.412 64.6193 110.733 65.4062 110.227 66.446C109.727 67.4858 109.477 68.7614 109.477 70.2727C109.477 71.7841 109.727 73.0597 110.227 74.0994C110.733 75.1392 111.412 75.9261 112.264 76.4602C113.122 76.9943 114.08 77.2614 115.136 77.2614C115.716 77.2614 116.273 77.1818 116.807 77.0227C117.341 76.8636 117.827 76.6278 118.264 76.3153C118.707 75.9972 119.082 75.608 119.389 75.1477C119.702 74.6818 119.92 74.1477 120.045 73.5455H122.159C122 74.4375 121.71 75.2358 121.29 75.9403C120.869 76.6449 120.347 77.2443 119.722 77.7386C119.097 78.2273 118.395 78.5994 117.616 78.8551C116.844 79.1108 116.017 79.2386 115.136 79.2386C113.648 79.2386 112.324 78.875 111.165 78.1477C110.006 77.4205 109.094 76.3864 108.429 75.0455C107.764 73.7045 107.432 72.1136 107.432 70.2727C107.432 68.4318 107.764 66.8409 108.429 65.5C109.094 64.1591 110.006 63.125 111.165 62.3977C112.324 61.6705 113.648 61.3068 115.136 61.3068C116.017 61.3068 116.844 61.4347 117.616 61.6903C118.395 61.946 119.097 62.321 119.722 62.8153C120.347 63.304 120.869 63.9006 121.29 64.6051C121.71 65.304 122 66.1023 122.159 67ZM125.575 61.5455H128.097L134.029 76.0341H134.234L140.165 61.5455H142.688V79H140.711V65.7386H140.54L135.086 79H133.177L127.722 65.7386H127.552V79H125.575V61.5455ZM146.926 61.5455H149.449L155.381 76.0341H155.585L161.517 61.5455H164.04V79H162.062V65.7386H161.892L156.438 79H154.528L149.074 65.7386H148.903V79H146.926V61.5455ZM177.823 65.9091C177.721 65.0455 177.306 64.375 176.579 63.8977C175.852 63.4205 174.96 63.1818 173.903 63.1818C173.13 63.1818 172.454 63.3068 171.874 63.5568C171.3 63.8068 170.852 64.1506 170.528 64.5881C170.21 65.0256 170.05 65.5227 170.05 66.0795C170.05 66.5455 170.161 66.946 170.383 67.2812C170.61 67.6108 170.9 67.8864 171.252 68.108C171.604 68.3239 171.974 68.5028 172.36 68.6449C172.746 68.7812 173.102 68.892 173.425 68.9773L175.198 69.4545C175.653 69.5739 176.158 69.7386 176.715 69.9489C177.278 70.1591 177.815 70.446 178.326 70.8097C178.843 71.1676 179.269 71.6278 179.604 72.1903C179.94 72.7528 180.107 73.4432 180.107 74.2614C180.107 75.2045 179.86 76.0568 179.366 76.8182C178.877 77.5795 178.161 78.1847 177.218 78.6335C176.281 79.0824 175.141 79.3068 173.8 79.3068C172.55 79.3068 171.468 79.1051 170.553 78.7017C169.644 78.2983 168.928 77.7358 168.406 77.0142C167.888 76.2926 167.596 75.4545 167.528 74.5H169.71C169.766 75.1591 169.988 75.7045 170.374 76.1364C170.766 76.5625 171.261 76.8807 171.857 77.0909C172.46 77.2955 173.107 77.3977 173.8 77.3977C174.607 77.3977 175.332 77.267 175.974 77.0057C176.616 76.7386 177.124 76.3693 177.499 75.8977C177.874 75.4205 178.062 74.8636 178.062 74.2273C178.062 73.6477 177.9 73.1761 177.576 72.8125C177.252 72.4489 176.826 72.1534 176.298 71.9261C175.769 71.6989 175.198 71.5 174.585 71.3295L172.437 70.7159C171.073 70.3239 169.994 69.7642 169.198 69.0369C168.403 68.3097 168.005 67.358 168.005 66.1818C168.005 65.2045 168.269 64.3523 168.798 63.625C169.332 62.892 170.048 62.3239 170.945 61.9205C171.849 61.5114 172.857 61.3068 173.971 61.3068C175.096 61.3068 176.096 61.5085 176.971 61.9119C177.846 62.3097 178.539 62.8551 179.05 63.5483C179.567 64.2415 179.84 65.0284 179.869 65.9091H177.823ZM184.776 79.1364C184.355 79.1364 183.994 78.9858 183.693 78.6847C183.392 78.3835 183.241 78.0227 183.241 77.6023C183.241 77.1818 183.392 76.821 183.693 76.5199C183.994 76.2187 184.355 76.0682 184.776 76.0682C185.196 76.0682 185.557 76.2187 185.858 76.5199C186.159 76.821 186.31 77.1818 186.31 77.6023C186.31 77.8807 186.239 78.1364 186.097 78.3693C185.96 78.6023 185.776 78.7898 185.543 78.9318C185.315 79.0682 185.06 79.1364 184.776 79.1364Z" fill="#121625"/>
<path d="M80 21.5V12C80 7.02944 75.9706 3 71 3H12C7.02944 3 3 7.02944 3 12V71C3 75.9706 7.02944 80 12 80H71C75.9706 80 80 75.9706 80 71V63.3922" stroke="url(#paint0_linear_49_47)" stroke-width="5"/>
<defs>
<linearGradient id="paint0_linear_49_47" x1="3" y1="41" x2="81.5" y2="41" gradientUnits="userSpaceOnUse">
<stop stop-color="#0C177A"/>
<stop offset="1" stop-color="#C220C3"/>
</linearGradient>
</defs>
</svg>
