<svg width="1024" height="1024" viewBox="0 0 1024 1024" fill="none" xmlns="http://www.w3.org/2000/svg">
<path d="M272.9 342.6L203.48 249.78L232.86 229.24L301.5 321.54L272.9 342.6ZM217.26 316.6C203.913 316.6 191.607 314.26 180.34 309.58C169.073 304.9 159.193 298.4 150.7 290.08C142.38 281.587 135.967 271.62 131.46 260.18C126.953 248.567 124.7 236 124.7 222.48C124.7 208.787 126.953 196.307 131.46 185.04C135.967 173.6 142.38 163.633 150.7 155.14C159.193 146.647 169.073 140.06 180.34 135.38C191.607 130.7 203.913 128.36 217.26 128.36C230.78 128.36 243.087 130.7 254.18 135.38C265.447 140.06 275.24 146.647 283.56 155.14C292.053 163.633 298.553 173.6 303.06 185.04C307.567 196.48 309.82 208.96 309.82 222.48C309.82 236 307.567 248.48 303.06 259.92C298.553 271.36 292.053 281.327 283.56 289.82C275.24 298.313 265.447 304.9 254.18 309.58C243.087 314.26 230.78 316.6 217.26 316.6ZM217.26 279.68C224.887 279.68 231.907 278.293 238.32 275.52C244.907 272.747 250.54 268.76 255.22 263.56C259.9 258.36 263.54 252.293 266.14 245.36C268.913 238.427 270.3 230.8 270.3 222.48C270.3 214.16 268.913 206.533 266.14 199.6C263.54 192.667 259.9 186.687 255.22 181.66C250.54 176.46 244.907 172.473 238.32 169.7C231.907 166.753 224.887 165.28 217.26 165.28C209.633 165.28 202.613 166.753 196.2 169.7C189.787 172.473 184.153 176.46 179.3 181.66C174.447 186.687 170.72 192.667 168.12 199.6C165.693 206.533 164.48 214.16 164.48 222.48C164.48 230.8 165.693 238.427 168.12 245.36C170.72 252.293 174.447 258.36 179.3 263.56C184.153 268.76 189.787 272.747 196.2 275.52C202.613 278.293 209.633 279.68 217.26 279.68ZM419.997 315.56C405.264 315.56 392.09 312.527 380.477 306.46C369.037 300.22 360.024 291.727 353.437 280.98C346.85 270.06 343.557 257.753 343.557 244.06V131.74H382.817V241.72C382.817 249 384.464 255.587 387.757 261.48C391.05 267.2 395.47 271.793 401.017 275.26C406.737 278.727 413.064 280.46 419.997 280.46C427.104 280.46 433.517 278.727 439.237 275.26C445.13 271.793 449.724 267.2 453.017 261.48C456.484 255.587 458.217 249 458.217 241.72V131.74H496.177V244.06C496.177 257.753 492.884 270.06 486.297 280.98C479.71 291.727 470.61 300.22 458.997 306.46C447.557 312.527 434.557 315.56 419.997 315.56ZM515.236 314L586.476 132H621.316L692.296 314H652.256L615.596 215.98C614.556 213.207 613.256 209.653 611.696 205.32C610.31 200.987 608.836 196.393 607.276 191.54C605.716 186.687 604.243 182.093 602.856 177.76C601.47 173.253 600.43 169.527 599.736 166.58L606.756 166.32C605.716 170.307 604.503 174.467 603.116 178.8C601.903 182.96 600.603 187.293 599.216 191.8C597.83 196.133 596.356 200.38 594.796 204.54C593.236 208.7 591.763 212.773 590.376 216.76L553.716 314H515.236ZM548.256 275.78L560.996 244.32H644.456L657.456 275.78H548.256ZM717.851 314V132H752.691L853.311 267.98H846.031C845.338 262.607 844.731 257.407 844.211 252.38C843.691 247.18 843.171 241.98 842.651 236.78C842.305 231.407 841.958 225.947 841.611 220.4C841.438 214.68 841.265 208.7 841.091 202.46C840.918 196.047 840.831 189.113 840.831 181.66V132H879.051V314H843.691L740.991 176.72L750.871 176.98C751.738 185.993 752.431 193.707 752.951 200.12C753.645 206.36 754.165 211.82 754.511 216.5C754.858 221.18 755.118 225.253 755.291 228.72C755.638 232.187 755.811 235.48 755.811 238.6C755.985 241.72 756.071 245.013 756.071 248.48V314H717.851Z" fill="#FEF3FF"/>
<path d="M216.48 892.6C203.133 892.6 190.827 890.347 179.56 885.84C168.467 881.16 158.76 874.66 150.44 866.34C142.293 857.847 135.967 847.88 131.46 836.44C126.953 824.827 124.7 812.173 124.7 798.48C124.7 785.133 127.04 772.827 131.72 761.56C136.4 750.12 142.987 740.24 151.48 731.92C159.973 723.427 169.94 716.84 181.38 712.16C192.82 707.48 205.213 705.14 218.56 705.14C227.227 705.14 235.72 706.353 244.04 708.78C252.533 711.033 260.247 714.413 267.18 718.92C274.287 723.427 280.353 728.8 285.38 735.04L260.94 762.08C256.78 757.92 252.447 754.367 247.94 751.42C243.607 748.3 238.927 745.96 233.9 744.4C229.047 742.667 223.847 741.8 218.3 741.8C210.847 741.8 203.827 743.187 197.24 745.96C190.827 748.733 185.193 752.633 180.34 757.66C175.487 762.513 171.587 768.493 168.64 775.6C165.867 782.533 164.48 790.247 164.48 798.74C164.48 807.407 165.867 815.293 168.64 822.4C171.413 829.333 175.313 835.313 180.34 840.34C185.367 845.193 191.347 849.007 198.28 851.78C205.387 854.38 213.187 855.68 221.68 855.68C227.227 855.68 232.6 854.9 237.8 853.34C243 851.78 247.767 849.613 252.1 846.84C256.607 844.067 260.593 840.86 264.06 837.22L283.04 867.64C278.88 872.32 273.247 876.567 266.14 880.38C259.207 884.193 251.407 887.227 242.74 889.48C234.073 891.56 225.32 892.6 216.48 892.6ZM315.918 890V708H351.538L417.838 815.9L394.438 815.64L461.518 708H495.578V890H457.358V827.6C457.358 812 457.704 797.96 458.398 785.48C459.264 773 460.651 760.607 462.558 748.3L467.238 760.52L413.938 843.2H396.778L344.518 761.04L348.938 748.3C350.844 759.913 352.144 771.873 352.838 784.18C353.704 796.313 354.138 810.787 354.138 827.6V890H315.918ZM542.91 890V708H578.53L644.83 815.9L621.43 815.64L688.51 708H722.57V890H684.35V827.6C684.35 812 684.697 797.96 685.39 785.48C686.257 773 687.643 760.607 689.55 748.3L694.23 760.52L640.93 843.2H623.77L571.51 761.04L575.93 748.3C577.837 759.913 579.137 771.873 579.83 784.18C580.697 796.313 581.13 810.787 581.13 827.6V890H542.91ZM828.922 892.6C817.656 892.6 807.342 891.213 797.982 888.44C788.796 885.667 780.562 881.593 773.282 876.22C766.176 870.847 759.762 864.347 754.042 856.72L778.482 828.9C786.976 840.687 795.382 848.747 803.702 853.08C812.196 857.24 821.382 859.32 831.262 859.32C836.636 859.32 841.402 858.627 845.562 857.24C849.896 855.68 853.276 853.513 855.702 850.74C858.129 847.967 859.342 844.673 859.342 840.86C859.342 838.087 858.736 835.573 857.522 833.32C856.309 830.893 854.576 828.813 852.322 827.08C850.069 825.173 847.382 823.527 844.262 822.14C841.142 820.58 837.676 819.28 833.862 818.24C830.049 817.027 825.889 816.073 821.382 815.38C811.676 813.127 803.182 810.44 795.902 807.32C788.622 804.027 782.556 800.04 777.702 795.36C772.849 790.507 769.209 785.047 766.782 778.98C764.529 772.913 763.402 766.067 763.402 758.44C763.402 750.64 765.136 743.447 768.602 736.86C772.069 730.1 776.836 724.293 782.902 719.44C789.142 714.587 796.249 710.86 804.222 708.26C812.369 705.66 820.949 704.36 829.962 704.36C841.056 704.36 850.762 705.66 859.082 708.26C867.402 710.687 874.596 714.24 880.662 718.92C886.902 723.6 892.102 729.32 896.262 736.08L871.562 760C867.922 755.147 863.936 751.073 859.602 747.78C855.442 744.487 850.849 742.06 845.822 740.5C840.969 738.767 835.942 737.9 830.742 737.9C825.022 737.9 820.082 738.68 815.922 740.24C811.762 741.627 808.469 743.707 806.042 746.48C803.789 749.253 802.662 752.633 802.662 756.62C802.662 759.74 803.442 762.513 805.002 764.94C806.562 767.367 808.816 769.533 811.762 771.44C814.709 773.173 818.262 774.733 822.422 776.12C826.582 777.507 831.176 778.72 836.202 779.76C845.736 781.667 854.316 784.18 861.942 787.3C869.569 790.42 876.069 794.233 881.442 798.74C886.989 803.073 891.236 808.273 894.182 814.34C897.129 820.233 898.602 826.907 898.602 834.36C898.602 846.667 895.656 857.153 889.762 865.82C883.869 874.487 875.722 881.16 865.322 885.84C854.922 890.347 842.789 892.6 828.922 892.6Z" fill="#FEF3FF"/>
<path d="M174.62 610V463.1H121.58V428H268.22V463.1H213.62V610H174.62ZM375.31 611.56C360.576 611.56 347.403 608.527 335.79 602.46C324.35 596.22 315.336 587.727 308.75 576.98C302.163 566.06 298.87 553.753 298.87 540.06V427.74H338.13V537.72C338.13 545 339.776 551.587 343.07 557.48C346.363 563.2 350.783 567.793 356.33 571.26C362.05 574.727 368.376 576.46 375.31 576.46C382.416 576.46 388.83 574.727 394.55 571.26C400.443 567.793 405.036 563.2 408.33 557.48C411.796 551.587 413.53 545 413.53 537.72V427.74H451.49V540.06C451.49 553.753 448.196 566.06 441.61 576.98C435.023 587.727 425.923 596.22 414.31 602.46C402.87 608.527 389.87 611.56 375.31 611.56ZM497.207 610V428H532.827L599.127 535.9L575.727 535.64L642.807 428H676.867V610H638.647V547.6C638.647 532 638.994 517.96 639.687 505.48C640.554 493 641.94 480.607 643.847 468.3L648.527 480.52L595.227 563.2H578.067L525.807 481.04L530.227 468.3C532.134 479.913 533.434 491.873 534.127 504.18C534.994 516.313 535.427 530.787 535.427 547.6V610H497.207ZM732.779 612.86C726.019 612.86 720.819 610.953 717.179 607.14C713.539 603.327 711.719 597.867 711.719 590.76C711.719 584.347 713.626 579.147 717.439 575.16C721.426 571 726.539 568.92 732.779 568.92C739.366 568.92 744.479 570.827 748.119 574.64C751.759 578.453 753.579 583.827 753.579 590.76C753.579 597.347 751.672 602.72 747.859 606.88C744.046 610.867 739.019 612.86 732.779 612.86Z" fill="#FEF3FF"/>
<path d="M980 268.123V83C980 60.9086 962.091 43 940 43H83C60.9086 43 43 60.9086 43 83V940C43 962.091 60.9086 980 83 980H940C962.091 980 980 962.091 980 940V777.902" stroke="url(#paint0_linear_64_5)" stroke-width="61"/>
<defs>
<linearGradient id="paint0_linear_64_5" x1="43" y1="505.416" x2="998.253" y2="505.416" gradientUnits="userSpaceOnUse">
<stop stop-color="#0C177A"/>
<stop offset="1" stop-color="#C220C3"/>
</linearGradient>
</defs>
</svg>
